<?xml version="1.0" encoding="utf-8"?>
<!-- Generator: Adobe Illustrator 27.5.0, SVG Export Plug-In . SVG Version: 6.00 Build 0)  -->
<svg version="1.1" xmlns="http://www.w3.org/2000/svg" xmlns:xlink="http://www.w3.org/1999/xlink" x="0px" y="0px"
	 viewBox="0 0 500 500" style="enable-background:new 0 0 500 500;" xml:space="preserve">
<g id="BACKGROUND">
	<rect style="fill:#C6EEFF;" width="500" height="500"/>
</g>
<g id="OBJECTS">
	
		<linearGradient id="SVGID_1_" gradientUnits="userSpaceOnUse" x1="-4196.9688" y1="372.9304" x2="-4243.4795" y2="467.57" gradientTransform="matrix(-1 0 0 1 -3794.261 0)">
		<stop  offset="0" style="stop-color:#FFFFFF"/>
		<stop  offset="1" style="stop-color:#D8ECFF"/>
	</linearGradient>
	<path style="fill:url(#SVGID_1_);" d="M339.921,500c0-22.417,18.173-40.59,40.59-40.59c9.215,0,17.709,3.076,24.522,8.25
		c2.502-2.212,5.462-3.917,8.722-4.951c-0.398-2.282-0.617-4.625-0.617-7.02c0-22.382,18.117-40.531,40.486-40.587
		c-8.738-10.473-14.001-23.947-14.001-38.653c0-33.346,27.032-60.378,60.378-60.378V500H339.921z"/>
	
		<linearGradient id="SVGID_00000072969994777809248800000011467312453708950451_" gradientUnits="userSpaceOnUse" x1="-3936.4453" y1="299.2179" x2="-3844.3994" y2="439.5591" gradientTransform="matrix(-1 0 0 1 -3794.261 0)">
		<stop  offset="0" style="stop-color:#FFFFFF"/>
		<stop  offset="1" style="stop-color:#D8ECFF"/>
	</linearGradient>
	<path style="fill:url(#SVGID_00000072969994777809248800000011467312453708950451_);" d="M0,136.811
		c52.32,0,94.734,42.414,94.734,94.733c0,12.278-2.336,24.01-6.587,34.776c35.2,7.307,61.653,38.49,61.653,75.857
		c0,15.9-4.797,30.676-13.011,42.975c16.185,7.933,29.183,21.347,36.605,37.82c2.736-0.292,5.513-0.452,8.327-0.452
		c42.791,0,77.48,34.689,77.48,77.48H0V136.811z"/>
	<g>
		<path style="fill:#FB9262;" d="M151.903,161.674c0,0-3.239-8.966-3.521-9.67c-0.282-0.704-2.957-4.366-3.474-5.07
			c-0.516-0.704-3.615-3.755-4.507-4.647c-0.892-0.892-2.019,2.535,0,5.915c2.018,3.38,3.474,5.68,3.708,6.243
			c0.235,0.563,2.394,9.013,2.394,9.013L151.903,161.674z"/>
		<path style="fill:#FB9262;" d="M146.918,163.721c0,0-4.909-8.628-5.323-9.301c-0.413-0.673-3.807-3.957-4.461-4.589
			c-0.654-0.631-4.373-3.215-5.446-3.972c-1.073-0.758-1.623,2.958,1.046,6.07c2.669,3.112,4.569,5.215,4.91,5.751
			c0.34,0.537,4.05,8.826,4.05,8.826L146.918,163.721z"/>
		<path style="fill:#FB9262;" d="M165.094,227.018l-2.863,1.221l-4.084,1.972c-2.957-14.552-8.403-44.685-7.839-47.363
			c0.563-2.678,3.333-6.611,3.99-12.531c0.657-5.92,0.516-8.267,0.423-9.3c-0.094-1.033-1.314-4.46-1.596-6.29
			c-0.282-1.831-3.38-0.939-3.568,1.643c-0.188,2.582,0,5.305,0,5.305s-7.041,1.08-11.595,4.741
			c-4.553,3.661-6.666,4.835-6.713,5.539c-0.047,0.704,2.019,9.436,3.098,11.454c1.08,2.018,2.817,3.521,2.817,3.521
			s-5.352,44.971-2.159,58.397c3.192,13.426,7.511,18.589,8.45,19.622c0.939,1.033,1.972,2.535,4.319,2.065
			c2.347-0.469,28.635-13.801,28.635-13.801l5.258-1.036v-25.721L165.094,227.018z"/>
		<path style="fill:#D8604E;" d="M382.063,137.076c4.037-0.469,6.239-0.215,6.854,0c0.615,0.215,4.647,2.863,5.258,3.239
			c0.61,0.376,2.77,3.568,3.896,4.272c1.127,0.704-1.364,2.594-3.802,1.972c-2.438-0.622-4.062-1.831-4.062-1.831l-2.275-0.376
			l-8.497-1.831L382.063,137.076z"/>
		<path style="fill:#D8604E;" d="M379.857,142.012c4.037-0.469,6.239-0.215,6.854,0c0.615,0.215,4.647,2.863,5.258,3.239
			c0.61,0.376,2.77,3.568,3.896,4.272c1.127,0.704-1.364,2.594-3.802,1.972c-2.438-0.622-4.062-1.831-4.062-1.831l-2.275-0.376
			l-8.497-1.831L379.857,142.012z"/>
		<path style="fill:#D8604E;" d="M378.991,142.469c3.513,0.88,5.268,1.786,5.713,2.159c0.445,0.373,2.972,3.851,3.362,4.356
			c0.39,0.505,1.185,3.846,1.902,4.788c0.717,0.942-1.954,1.733-3.79,0.446c-1.837-1.287-2.809-2.805-2.809-2.805l-1.778-1.03
			l-6.506-4.202L378.991,142.469z"/>
		<path style="fill:#FB9262;" d="M299.585,200.887c0,0,6.76-1.878,10.64-3.192c3.881-1.314,60.212-31.107,64.656-34.174
			c8.262-5.132,9.952-8.074,11.892-11.078c1.94-3.004,3.881-4.757,4.538-5.743c0.657-0.986,1.408-2.112,2.629-3.098
			c1.221-0.986,0.282-2.347-2.488-2.394c-2.77-0.047-4.694,1.831-6.103,2.957s-3.755,2.112-4.882,2.77
			c-1.127,0.657-1.455,0.282-0.986-0.657c0.469-0.939,1.831-3.99,2.488-4.835c0.657-0.845,6.149-3.99,6.713-4.131
			c0.563-0.141,3.662,0.329,6.854-0.376c3.192-0.704,3.943-3.474,3.004-3.802c-0.939-0.329-6.243-0.516-8.919-0.845
			c-2.676-0.329-3.615-0.422-6.196,0.376c-2.582,0.798-9.013,2.394-10.281,3.004c-1.267,0.61-2.065,1.408-2.91,3.286
			s-6.056,14.505-6.572,15.35c-0.516,0.845-4.131,3.004-11.97,6.197c-7.839,3.192-36.459,10.671-43.344,12.666
			c-6.885,1.996-13.832,4.061-13.832,4.061L299.585,200.887z"/>
		<path style="fill:#424242;" d="M294.515,175.851c0,0,14.834-3.818,15.335-3.818s1.079,0.406,1.147,0.388
			c2.858,3.743,7.254,10.904,7.466,21.281c-0.101,0.864-0.257,0.989-1.196,1.615c-0.939,0.626-7.073,3.067-10.546,4.663
			c-3.474,1.596-6.729,2.003-6.729,2.003L294.515,175.851z"/>
		<path style="fill:#FB9262;" d="M137.789,446.93c0,0,69.073-8.95,78.35-11.016c9.277-2.065,16.412-6.516,16.412-6.516
			s17.463-19.397,21.218-23.34c3.755-3.943,13.29-22.618,13.29-22.618l-48.053-11.337L212.438,404c0,0-13.686-0.633-27.206,3.247
			c-13.52,3.881-34.425,11.955-50.072,17.588C128.619,430.844,130.247,445.459,137.789,446.93z"/>
		<path style="fill:#D8604E;" d="M212.438,404c0,0-13.686-0.633-27.206,3.247c-2.798,0.803-5.925,1.793-9.244,2.897
			c15.542,5.188,34.15,16.071,41.561,25.429c8.577-2.175,15.001-6.175,15.001-6.175s17.463-19.397,21.218-23.34
			c3.755-3.943,13.29-22.618,13.29-22.618l-48.053-11.337L212.438,404z"/>
		<path style="fill:#FB9262;" d="M212.553,372.541l1.127,4.319l2.066,11.972c0,0-3.755-5.352-15.21-8.146
			c-11.454-2.794-36.24-8.615-43.939-11.525c-9.295,6.948-10.327,16.899-10.327,16.899s19.434,9.295,32.484,16.9
			c13.05,7.605,32.203,17.744,38.305,21.218c6.103,3.474,8.731,5.821,16.242,5.164c7.511-0.657,12.581-5.445,14.552-11.454
			c1.972-6.009,9.561-34.032,9.561-34.032l0.579-3.804C257.994,380.052,242.127,369.631,212.553,372.541z"/>
		<path style="fill:#D8604E;" d="M212.553,372.541l1.127,4.319c0,0,25.441,1.14,43.552,7.672c0.118-0.435,0.183-0.676,0.183-0.676
			l0.579-3.804C257.994,380.052,242.127,369.631,212.553,372.541z"/>
		<path style="fill:#FFFFFF;" d="M210.112,302.409c-6.478,14.834-7.229,26.006-7.135,30.888c0.094,4.882,4.413,34.55,4.413,34.55
			s-1.322,5.539-0.849,6.478c0.473,0.939,7.139,2.535,7.139,2.535l-0.469-2.629c0,0,28.541-1.972,44.783,5.821l-0.657,4.319
			c0,0,14.552,4.037,16.336,4.319c1.784,0.282,1.784,0.188,2.066-0.657c0.282-0.845,17.474-42.994,18.308-80.929
			C277.115,293.896,232.738,283.632,210.112,302.409z"/>
		<g>
			<path style="fill:#DD3A4B;" d="M219.838,296.55c-1.211,0.518-2.387,1.095-3.534,1.716c-5.187,18.318-5.158,44.774,0.108,75.82
				c0.837-0.027,1.812-0.05,2.914-0.064C213.901,342.129,214.081,314.371,219.838,296.55z"/>
			<path style="fill:#DD3A4B;" d="M224.824,374.047c-5.654-33.221-5.229-61.96,1.249-79.656c-1.157,0.319-2.298,0.67-3.415,1.064
				c-6.029,18.356-6.294,45.915-0.765,78.554C222.818,374.014,223.798,374.025,224.824,374.047z"/>
		</g>
		<g>
			<path style="fill:#DD3A4B;" d="M301.901,186.992c-2.754-7.761-8.387-14.396-8.387-14.396s-1.986,0.227-5.028,0.571
				c4.259,4.739,11.366,15.554,9.565,33.544c2.157-0.706,3.349-1.192,3.349-1.192S304.655,194.753,301.901,186.992z"/>
			<path style="fill:#DD3A4B;" d="M169.453,220.398c-0.688,0.435-1.121,0.705-1.121,0.705s-6.102,2.253-6.102,2.816s0,4.319,0,4.319
				l2.159-0.469c0,0,10.609,8.45,14.74,23.941l-2.723,1.502c0,0,4.413,2.723,4.694,2.723c0.114,0,2.815-0.743,5.981-1.626
				C183.486,233.711,175.356,224.384,169.453,220.398z"/>
			<path style="fill:#2665C7;" d="M288.486,173.167c-9.827,1.109-30.806,3.44-32.527,3.329c-2.253-0.145-27.775,5.614-27.775,5.614
				l-23.375,10.744l-3.054,5.154c0,0-18.683,12.862-22.063,15.491c-2.605,2.026-7.929,5.438-10.24,6.9
				c5.903,3.986,14.033,13.313,17.629,33.911c4.631-1.291,10.261-2.881,10.261-2.881l7.042,0.094c0,0,11.548,18.308,15.022,27.508
				c-6.29,13.801-10.234,19.904-10.234,20.655c0,0.751,0.939,2.723,0.939,2.723s10.609-6.196,36.428-5.539
				c30.92,0.787,47.506,10.234,47.506,10.234s2.253-2.253,2.441-3.943c0.188-1.69,1.659-50.323-15.867-92.384
				c7.772-1.166,13.899-2.91,17.431-4.065C299.852,188.721,292.745,177.906,288.486,173.167z"/>
		</g>
		<path style="fill:#FB9262;" d="M195.841,186.366c6.009,1.408,9.67,7.511,9.67,7.511l29.949,1.502c0,0-5.727-11.454-6.478-13.144
			c-0.751-1.69,0-7.323,0.469-8.262l-3.656-3.657h-29.955V186.366z"/>
		<path style="fill:#D8604E;" d="M206.701,180.921c5.765,3.774,16.372,6.485,24.965,6.828c-1.238-2.503-2.376-4.823-2.682-5.514
			c-0.751-1.69,0-7.323,0.469-8.262l-2.253-2.253h-20.498V180.921z"/>
		<path style="fill:#FB9262;" d="M205.089,133.133c4.269,1.426,8.074,3.286,10.985,7.37c2.91,4.084,3.333,5.093,7.417,5.539
			c4.084,0.446,4.647-0.423,5.093-0.235c0.446,0.188,1.103,1.174,1.08,2.417c-0.023,1.244-0.939,3.802-0.258,4.647
			c0.681,0.845,1.596,0.704,1.901,1.244c0.305,0.54,0.423,1.596,0.282,2.699c1.009,0.469,1.784,0.774,2.019,1.76
			c0.235,0.986-0.329,2.3,0.235,3.568c0.563,1.267,3.122,3.427,3.521,5.14c0.399,1.713,1.134,3.184-2.934,6.689
			c-4.068,3.505-8.262,6.822-16.211,7.636c-7.949,0.814-11.517-0.689-11.517-0.689l-4.381,2.159c0,0-0.188,5.821-8.919,6.572
			c-8.731,0.751-27.133-3.755-29.668-25.255C161.197,142.897,183.167,125.81,205.089,133.133z"/>
		<path style="fill:#D8604E;" d="M227.434,152.99c0.141-0.704-0.094-1.502-0.423-1.338c-0.329,0.164-0.61,1.408-0.329,1.948
			C227.035,153.295,227.434,152.99,227.434,152.99z"/>
		<path style="fill:#D8604E;" d="M230.931,157.214c0,0-1.268,0.728-2.065,1.667c-0.798,0.939-1.948,1.972-2.488,2.324
			c-0.54,0.352-0.939,0.563-0.939,0.563s0.56,0.211,1.583-0.305S230.931,157.214,230.931,157.214z"/>
		<path style="fill:#FFFFFF;" d="M215.022,145.033c2.107,0.962,3.797,3.544,3.75,3.732c-0.047,0.188-1.784,2.511-4.976,2.488
			c-0.704-1.15-0.587-2.324-0.587-2.324L215.022,145.033z"/>
		<path style="fill:#424242;" d="M217.47,145.972c1.141,1.141,1.478,2.655,0.752,3.381c-0.726,0.726-2.24,0.389-3.381-0.752
			c-1.141-1.141-1.478-2.655-0.752-3.381C214.815,144.494,216.329,144.831,217.47,145.972z"/>
		<path style="fill:#292929;" d="M214.431,141.841c-0.728-0.61-2.112-0.915-2.723-0.704c-2.371,2.066-2.863,3.873-2.887,6.15
			C211.379,143.061,214.431,141.841,214.431,141.841z"/>
		<path style="fill:#292929;" d="M217.318,144.446c-1.361-0.352-2.464-0.164-2.887,0.164c-0.423,0.329-2.793,2.91-1.103,6.642
			C213.234,149.798,213.445,145.596,217.318,144.446z"/>
		<path style="fill:#FFFFFF;" d="M215.336,148.564c-0.359,0.537-0.932,0.784-1.281,0.551c-0.349-0.233-0.34-0.857,0.018-1.394
			s0.932-0.784,1.281-0.551C215.703,147.403,215.694,148.027,215.336,148.564z"/>
		<path style="fill:#424242;" d="M195.841,171.72c2.316,1.095,5.383-0.814,5.477-1.033c-2.848-1.283-5.508-4.194-5.664-4.663
			c-1.784-1.909-1.753-6.134-1.69-7.605c2.472-1.002,3.098-2.003,3.098-2.003s-4.475-1.158-5.883-5.477
			c5.883,0.845,6.197,0.313,6.197,0.313s-2.973-2.629-3.349-3.787c3.881-1.252,8.387-2.66,8.231-2.879
			c-0.157-0.219-2.285-1.565-4.726-2.003c3.912-2.41,6.384-2.848,8.387-6.635c-0.908-0.094-1.252,0-1.252,0l1.111-2.581l1.115,0.409
			c0,0,0.693-3.712,0-5.996c-1.663,1.314-2.039,1.596-2.039,1.596s-0.25-1.377-0.501-3.192c-0.939-2.848-1.909-3.317-1.909-3.317
			s-1.565,4.1-3.411,4.475c-4.663-0.313-7.073-0.469-7.417-0.313c-0.344,0.156-4.444,0.25-6.572,2.222
			c-0.845-3.536-2.097-4.444-2.097-4.444s-2.159,4.35-3.787,5.508c-1.627,1.158-5.445,2.347-8.262,5.226
			c-2.817,2.879-4.788,6.666-4.788,6.666s-1.158-3.286-3.13-3.943c-0.125,5.79-0.876,10.922-0.876,10.922s-2.316,9.386-2.551,11.382
			c-0.235,1.996,1.08,4.719,1.08,4.719s-3.38,0.282-5.445-1.737c2.394,4.6,4.6,5.633,6.15,5.821
			c-1.127,3.192-0.469,5.07-0.141,5.727s3.098,5.211,1.925,7.135c2.019-0.704,3.004-2.112,3.004-2.112s2.723,6.713,6.948,8.403
			c4.225,1.69,9.06,2.066,9.06,2.066s0.704,1.69,0.892,2.77c2.159-0.141,2.817-1.972,2.817-1.972
			c2.441,1.08,4.647,1.127,6.713,0.751c2.065-0.375,6.056-1.972,6.056-1.972s2.535,1.925,2.957,2.441
			c1.267-2.347,1.221-4.741,0.376-5.962c2.112,0.563,3.239,1.174,3.239,1.174s-0.665-2.784-2.468-4.936
			c-2.555,0.946-8.282,0.476-9.925-0.368c-1.643-0.845-3.239-4.507-3.004-6.854C190.02,173.316,192.484,171.673,195.841,171.72z"/>
		<path style="fill:#D8604E;" d="M193.4,177.885c0.133-1.38,0.031-2.817-0.689-2.817c-0.72,0-1.408,1.252-1.408,1.94
			c0,0.689,0.157-0.094,0.532-0.532c0.376-0.438,0.814-0.626,0.939-0.125S193.373,178.167,193.4,177.885z"/>
		<path style="fill:#D8604E;" d="M194.621,177.924c-0.326-0.988,0.063-2.386,0.814-2.511c0.751-0.125,2.41-0.626,2.566-0.219
			c0.156,0.407-0.031,2.457,0.313,2.731c0.344,0.274,2.034-0.352,2.441-0.133c0.407,0.219,0.375,0.563,0.188,1.502
			c-0.188,0.939-0.501,1.94-0.595,1.565c-0.094-0.376,0.031-1.753-0.313-1.909c-0.344-0.157-0.994,1.158-2.187,0.563
			c-1.193-0.595-1.162-2.566-1.757-2.785C195.497,176.508,194.84,178.589,194.621,177.924z"/>
		<path style="fill:#DD3A4B;" d="M202.75,196.33v-5.858c0,0,24.73-0.119,25.435,0c0.704,0.119,7.276,4.907,7.276,4.907l-8.168-0.376
			c0,0-2.159,10.938-2.3,11.548c-0.141,0.61-0.516,1.033-1.972,0.516C221.566,206.551,202.75,196.33,202.75,196.33z"/>
		<path style="fill:#9C2935;" d="M227.293,195.003c0.282-1.69,0.939-3.474,1.314-3.286c0.376,0.188,6.666,3.661,6.666,3.661
			L227.293,195.003z"/>
		<path style="fill:#DD3A4B;" d="M228.858,182.157l6.603,13.222l-0.657-8.403c0,0,6.337,0.704,6.478,0.516
			c0.141-0.188-0.141-0.61-0.704-1.221c-0.563-0.61-7.605-6.431-8.309-6.76c-0.704-0.329-3.544-1.248-3.544-1.248
			S228.341,180.138,228.858,182.157z"/>
		<path style="fill:#9C2935;" d="M234.804,186.976c-1.878-0.563-2.629-0.638-2.535-0.154c0.094,0.483,1.393,4.882,1.393,4.882
			l1.799,3.675L234.804,186.976z"/>
		<g>
			<path style="fill:#1F52A1;" d="M257.574,176.421c-0.669,0.05-1.161,0.077-1.444,0.078l0.435,0.363
				c0.167,0.118,16.704,12.074,24.447,35.053l0.066-0.022c-0.152-0.372-0.302-0.745-0.456-1.117
				c0.322-0.048,0.636-0.099,0.953-0.149C274.317,190.042,260.184,178.43,257.574,176.421z"/>
			<path style="fill:#1F52A1;" d="M203.925,251.323l-0.022,0.193l0.482,0.006c0,0,0.15,0.238,0.409,0.654l0.054-0.478
				c1.497-2.38,3.743-19.61-0.59-33.17c-2.334-7.303-6.138-12.133-11.323-14.416c-0.309,0.215-0.621,0.432-0.934,0.65
				c5.205,2.067,9.018,6.781,11.343,14.058c4.418,13.829,1.805,31.063,0.676,32.392L203.925,251.323z"/>
		</g>
		<path style="fill:#1F52A1;" d="M204.848,251.698c2.353-4.244,13.119-21.331,13.369-20.58c0.25,0.751-2.191,7.073-3.505,10.014
			c-1.314,2.942-3.38,2.942-4.319,4.444c-0.939,1.502-4.481,8.41-4.481,8.41l-1.118-1.81L204.848,251.698z"/>
		<path style="fill:#1F52A1;" d="M280.745,209.712c-0.626-7.198-0.626-18.652-0.25-17.87c0.375,0.782,1.377,9.295,1.314,10.609
			c-0.063,1.314-0.563,3.067-0.563,3.067l0.327,5.108L280.745,209.712z"/>
		<path style="fill:#1F52A1;" d="M219.407,279.031c12.894-8.794,28.166-10.797,27.915-9.921c-0.25,0.876-13.895,6.009-15.523,7.01
			C230.172,277.122,219.407,279.031,219.407,279.031z"/>
		<g>
			<path style="fill:#D9D9D9;" d="M277.522,332.64c2.441-3.286,4.976-9.482,5.164-10.421c0.188-0.939-6.947,9.201-10.421,11.642
				c-3.474,2.441-6.196,2.535-7.229,2.159c-1.033-0.376-2.91-7.323-4.037-10.328c-1.127-3.004-0.939-6.948-4.225-10.797
				c-3.286-3.849-12.393-10.703-14.552-11.36c-2.159-0.657,7.511,6.666,11.454,11.923s9.295,15.679,9.952,19.528
				c0.657,3.849,0,13.144,0,19.904c0,6.76-2.065,22.063-2.347,23.753c-0.282,1.69-3.342,1.775-3.342,1.775l0,0l-0.601,3.952
				c0,0,3.224,0.894,6.823,1.87c-0.607-2.176-1.236-4.537-1.283-5.156c-0.094-1.221,0.094-4.6,0.939-19.059
				c0.845-14.458,5.07-24.41,6.76-25.631C272.264,335.175,275.081,335.926,277.522,332.64z"/>
			<path style="fill:#D9D9D9;" d="M207.101,374.765c1.702,0.926,6.579,2.095,6.579,2.095l-0.469-2.629
				C210.846,374.026,208.573,374.327,207.101,374.765z"/>
		</g>
		<path style="fill:#424242;" d="M215.168,385.485c-1.206,0.107-1.643-0.096-2.144,0.756c-3.381,8.676-4.945,18.565-4.758,19.379
			c0.188,0.814,0.626,1.627,0.626,1.627s-1.001,0.25-1.001,1.878c0,1.627,0.438,11.955,1.377,13.394
			c0.939,1.439,8.137,5.633,15.648,7.573c7.511,1.94,12.33,0.626,16.899-1.565c4.569-2.191,6.447-5.758,7.448-8.888
			c1.001-3.13,3.568-13.207,3.568-13.958c0-0.751-0.188-1.753-1.064-2.504c-0.876-0.751-15.898-9.702-16.962-9.952
			c-1.064-0.25-2.253-0.125-2.253-0.125s-0.25-1.064-1.252-1.565C230.297,391.037,215.168,385.485,215.168,385.485z"/>
		<path style="fill:#292929;" d="M231.299,391.537c-0.178-0.089-0.805-0.338-1.707-0.685c0.081,2.759-0.472,8.266-5.82,10.7
			c-6.256,2.847-13.469,2.535-15.382,2.39c-0.12,0.899-0.165,1.505-0.125,1.678c0.188,0.814,0.626,1.627,0.626,1.627
			s14.224-4.24,16.9-5.93c2.676-1.69,6.76-8.215,6.76-8.215S232.3,392.038,231.299,391.537z"/>
		<g>
			<path style="fill:#FFFFFF;" d="M134.784,384.532c0,0,4.324-0.434,6.168,0c1.844,0.434,9.793,4.565,10.043,4.565
				s0.782,0.44,0.798-0.343c0.016-4.914,2.125-13.758,9.238-18.13c0.416-0.554-0.335-1.43-0.898-1.462
				c-0.563-0.031-6.259-1.69-6.259-1.69l-11.266-5.038c0,0-5.195,3.415-8.512,9.03C130.779,377.079,134.784,384.532,134.784,384.532
				z"/>
			<path style="fill:#292929;" d="M130.779,359.867c7.091-2.742,11.752-5.983,14.904-8.484c-2.358-2.609-5.729-4.262-7.112-4.003
				c-1.502,0.282-9.295,7.511-14.74,11.736c-5.445,4.225-14.365,7.135-21.875,14.271c-7.511,7.135-10.14,19.528-9.107,21.781
				c0.061,0.134,0.131,0.269,0.205,0.406c0.777-4.279,2.944-11.016,8.933-17.931C111.954,366.134,121.39,363.497,130.779,359.867z"
				/>
			<path style="fill:#292929;" d="M114.63,391.412c11.392-1.878,26.038-4.219,26.288-5.927c0.25-1.709-0.751-10.725-7.511-9.972
				c-19.278,9.766-20.53,11.643-20.53,11.643L114.63,391.412z"/>
			<path style="fill:#424242;" d="M153.874,365.218c-0.188-0.939-3.004-4.6-3.849-5.633c-0.845-1.033-1.408-4.507-3.755-7.511
				c-0.186-0.238-0.384-0.467-0.587-0.691c-3.152,2.501-7.813,5.742-14.904,8.484c-9.389,3.63-18.824,6.268-28.792,17.776
				c-5.989,6.915-8.156,13.652-8.933,17.931c1.18,2.157,3.921,4.498,5.334,3.35c1.502-1.22,16.242-7.511,16.242-7.511
				s-0.375-2.347,0-3.38c0.376-1.033,21.594-9.858,21.594-11.172c0-1.314,2.253-7.699,4.601-9.389
				c2.347-1.69,9.295-0.188,10.985-0.845l2.065,0.845C153.874,367.471,154.062,366.157,153.874,365.218z"/>
		</g>
		<g>
			<path style="fill:#FFFFFF;" d="M116.285,450.253c0,0,4.151-1.285,6.045-1.226c1.893,0.058,14.499-1.552,14.745-1.602
				c0.245-0.05,0.854,0.276,0.714-0.495c-4.757-3.079-6.947-10.265-2.629-22.094c0.298-0.626-1.132-0.457-1.69-0.376
				c-0.558,0.081-3.276,1.176-3.276,1.176l-10.633,1.405c0,0-4.413,4.379-6.547,10.542
				C110.878,443.746,116.285,450.253,116.285,450.253z"/>
			<path style="fill:#292929;" d="M107.457,426.877c6.405-4.097,10.328-8.199,12.921-11.277c-2.83-2.088-6.462-3.038-7.766-2.509
				c-1.416,0.575-7.616,9.209-12.113,14.432c-4.497,5.223-12.659,9.848-18.602,18.334c-5.943,8.486-6.056,21.154-4.596,23.157
				c0.087,0.119,0.182,0.238,0.282,0.357c-0.089-4.348,0.695-11.381,5.191-19.349C90.254,436.761,98.977,432.301,107.457,426.877z"
				/>
			<path style="fill:#292929;" d="M97.901,461.003c10.791-4.105,24.679-9.31,24.585-11.035s-2.868-10.362-9.343-8.28
				c-16.952,13.403-17.805,15.492-17.805,15.492L97.901,461.003z"/>
			<path style="fill:#424242;" d="M128.964,423.834c-0.73-0.62-1.47-0.846-2.504-1.69c-1.033-0.844-2.472-3.506-5.37-5.984
				c-0.229-0.196-0.469-0.381-0.713-0.561c-2.592,3.078-6.516,7.18-12.921,11.277c-8.48,5.424-17.203,9.884-24.684,23.144
				c-4.495,7.968-5.28,15.001-5.191,19.349c1.585,1.88,4.737,3.629,5.893,2.223c1.23-1.495,14.425-10.59,14.425-10.59
				s-0.835-2.226-0.672-3.312c0.163-1.087,19.203-13.954,18.942-15.242c-0.261-1.288,3.536-8.543,5.5-10.665
				c1.964-2.123,8.522-6.148,8.522-6.148S129.996,424.71,128.964,423.834z"/>
		</g>
		<path style="fill:#D8604E;" d="M158.146,230.211c2.159,6.431,0.094,18.449-0.469,19.998
			C159.93,246.734,162.606,239.599,158.146,230.211z"/>
		<path style="fill:#D8604E;" d="M149.556,162.05l-0.657,3.004c-3.708,3.38-6.431,6.197-8.074,13.707
			c-0.141-5.868,2.666-9.584,3.849-11.079c2.676-3.38,3.708-3.38,3.708-4.413c0-1.033-0.411-5.988,1.341-7.709
			C149.723,155.561,149.274,159.139,149.556,162.05z"/>
		<path style="fill:#FB9262;" d="M141.106,165.805c0,0-4.553-5.07-5.539-5.915c-0.986-0.845-4.929-3.29-5.586-3.758
			c-0.657-0.467-2.347-1.171-4.037-2.11c-1.69-0.939-1.925,1.502-0.704,3.568c1.22,2.066,3.943,3.568,4.976,4.272
			c1.033,0.704,2.574,2.159,2.574,2.159l3.153,5.07L141.106,165.805z"/>
		<path style="fill:#FB9262;" d="M136.224,168.293c0,0-5.258-2.723-5.915-2.957c-0.657-0.235-4.507-0.047-5.117,0
			c-0.61,0.047-3.286,1.586-4.084,1.826c-0.798,0.24-0.282,2.164,2.535,2.446c2.816,0.282,3.709,0,3.709,0l3.956,2.155
			L136.224,168.293z"/>
	</g>
	<g>
		<path style="fill:#B1D877;" d="M355.091,106.263c8.11-5.583,12.017-12.575,12.017-12.575s-4.101-6.879-4.881-16.694
			c-0.16,0.045-0.246,0.073-0.246,0.073s0.085-0.028,0.246-0.073c-0.344-4.331-0.036-9.23,1.555-14.369
			c-6.936,0.734-13.191,3.741-18.016,8.258C343.143,93.656,353.583,104.789,355.091,106.263z"/>
		<path style="fill:#2665C7;" d="M384.007,97.809c-8.89-4.232-16.898-4.12-16.898-4.12s-3.907,6.992-12.017,12.575
			c0.116,0.114,0.185,0.176,0.185,0.176s-0.069-0.063-0.185-0.176c-3.578,2.463-7.974,4.646-13.218,5.837
			c3.949,5.403,9.586,9.49,16.14,11.481C379.06,114.467,383.484,99.853,384.007,97.809z"/>
		<path style="fill:#FFD42B;" d="M345.766,70.883c-6.089,5.701-9.899,13.806-9.899,22.805c0,6.886,2.233,13.248,6.007,18.412
			c5.244-1.192,9.64-3.374,13.218-5.837C353.583,104.789,343.143,93.656,345.766,70.883z"/>
		<path style="fill:#B1D877;" d="M384.007,97.809c-0.523,2.044-4.947,16.659-25.993,25.773c2.878,0.874,5.931,1.349,9.095,1.349
			c12.75,0,23.708-7.641,28.565-18.591C392.018,102.392,387.929,99.676,384.007,97.809z"/>
		<path style="fill:#FFD42B;" d="M367.108,62.447c-1.124,0-2.233,0.062-3.327,0.178c-1.591,5.139-1.899,10.038-1.555,14.369
			c2.053-0.574,16.911-4.041,35.306,9.609C394.322,72.764,381.924,62.447,367.108,62.447z"/>
		<path style="fill:#2665C7;" d="M362.227,76.994c0.78,9.815,4.881,16.694,4.881,16.694l0.402-0.408l-0.402,0.408
			c0,0,8.008-0.112,16.898,4.12c0.04-0.157,0.06-0.249,0.06-0.249s-0.02,0.092-0.06,0.249c3.923,1.867,8.012,4.584,11.667,8.531
			c1.716-3.868,2.677-8.146,2.677-12.651c0-2.438-0.289-4.808-0.817-7.085C379.138,72.953,364.28,76.42,362.227,76.994z"/>
		<path style="fill:#2054A6;" d="M384.755,97.134c-7.89-3.756-16.237-4.09-18.016-4.118c0.229,0.437,0.369,0.672,0.369,0.672
			s8.008-0.112,16.898,4.12c3.923,1.867,8.012,4.584,11.667,8.531c0.148-0.333,0.282-0.673,0.419-1.012
			C392.521,101.568,388.561,98.946,384.755,97.134z"/>
		<path style="fill:#82A152;" d="M361.268,76.684c0.692,8.711,4.577,16.107,5.442,17.661c0.264-0.417,0.398-0.656,0.398-0.656
			s-4.101-6.88-4.881-16.694c-0.344-4.331-0.036-9.23,1.555-14.369c-0.362,0.039-0.724,0.092-1.086,0.144
			C361.225,67.741,360.935,72.481,361.268,76.684z"/>
		<path style="fill:#2054A6;" d="M355.301,107.248c7.198-4.955,11.661-12.017,12.574-13.543c-0.493-0.02-0.767-0.017-0.767-0.017
			s-3.907,6.992-12.017,12.575c-3.579,2.464-7.976,4.646-13.221,5.838c0.215,0.294,0.442,0.581,0.667,0.868
			C347.578,111.757,351.828,109.639,355.301,107.248z"/>
		
			<ellipse transform="matrix(0.5 -0.866 0.866 0.5 102.2116 342.0003)" style="opacity:0.29;fill:#FFFFFF;" cx="347.286" cy="82.482" rx="11.173" ry="6.611"/>
	</g>
</g>
</svg>
